<svg width="25" height="25" viewBox="0 0 25 25" fill="none" xmlns="http://www.w3.org/2000/svg">
<path fill-rule="evenodd" clip-rule="evenodd" d="M12.4658 3C7.23796 3 3 7.23796 3 12.4658C3 17.6936 7.23796 21.9315 12.4658 21.9315C17.6936 21.9315 21.9315 17.6936 21.9315 12.4658C21.9315 7.23796 17.6936 3 12.4658 3ZM0 12.4658C0 5.58111 5.58111 0 12.4658 0C19.3504 0 24.9315 5.58111 24.9315 12.4658C24.9315 19.3504 19.3504 24.9315 12.4658 24.9315C5.58111 24.9315 0 19.3504 0 12.4658ZM12.4657 5.48292C13.2942 5.48292 13.9657 6.15449 13.9657 6.98292V13.1512C13.9657 13.9796 13.2942 14.6512 12.4657 14.6512C11.6373 14.6512 10.9657 13.9796 10.9657 13.1512V6.98292C10.9657 6.15449 11.6373 5.48292 12.4657 5.48292ZM12.4658 19.7032C13.5559 19.7032 14.4396 18.8195 14.4396 17.7293C14.4396 16.6392 13.5559 15.7555 12.4658 15.7555C11.3756 15.7555 10.4919 16.6392 10.4919 17.7293C10.4919 18.8195 11.3756 19.7032 12.4658 19.7032Z" fill="current"/>
</svg>
