<svg width="18" height="18" viewBox="0 0 18 18" fill="none" xmlns="http://www.w3.org/2000/svg">
<path fill-rule="evenodd" clip-rule="evenodd" d="M8.99984 17.3333C5.07146 17.3333 3.10728 17.3333 1.8869 16.1129C0.666504 14.8926 0.666504 12.9283 0.666504 8.99999C0.666504 5.07161 0.666504 3.10743 1.8869 1.88705C3.10728 0.666656 5.07146 0.666656 8.99984 0.666656C12.9282 0.666656 14.8924 0.666656 16.1128 1.88705C17.3332 3.10743 17.3332 5.07161 17.3332 8.99999C17.3332 12.9283 17.3332 14.8926 16.1128 16.1129C14.8924 17.3333 12.9282 17.3333 8.99984 17.3333ZM6.66484 5.04166H6.75153C7.50025 5.04163 8.12459 5.04161 8.62025 5.10825C9.14342 5.17859 9.61575 5.33331 9.99525 5.71287C10.3748 6.09243 10.5296 6.56476 10.5999 7.08792C10.6666 7.58357 10.6665 8.20791 10.6665 8.95666V8.99999C10.6665 9.34516 10.3867 9.62499 10.0415 9.62499C9.69634 9.62499 9.4165 9.34516 9.4165 8.99999C9.4165 8.19666 9.41517 7.65699 9.36109 7.25449C9.30934 6.86993 9.22 6.70536 9.11142 6.59676C9.00284 6.48816 8.83825 6.39881 8.45367 6.34711C8.05117 6.29299 7.5115 6.29166 6.70817 6.29166C5.90483 6.29166 5.3652 6.29299 4.96266 6.34711C4.57811 6.39881 4.41354 6.48816 4.30494 6.59676C4.19634 6.70536 4.10699 6.86993 4.05529 7.25449C4.00117 7.65699 3.99984 8.19666 3.99984 8.99999C3.99984 9.80332 4.00117 10.343 4.05529 10.7455C4.10699 11.1301 4.19634 11.2947 4.30494 11.4032C4.41354 11.5118 4.57811 11.6012 4.96266 11.6529C5.3652 11.707 5.90483 11.7083 6.70817 11.7083C7.05335 11.7083 7.33317 11.9882 7.33317 12.3333C7.33317 12.6785 7.05335 12.9583 6.70817 12.9583H6.66482C5.9161 12.9583 5.29175 12.9584 4.7961 12.8917C4.27295 12.8214 3.80061 12.6667 3.42105 12.2871C3.0415 11.9076 2.88677 11.4352 2.81643 10.9121C2.7498 10.4164 2.74981 9.79207 2.74984 9.04332V8.95666C2.74981 8.20791 2.7498 7.58357 2.81643 7.08792C2.88677 6.56476 3.0415 6.09243 3.42105 5.71287C3.80061 5.33331 4.27295 5.17859 4.7961 5.10825C5.29175 5.04161 5.91612 5.04163 6.66484 5.04166ZM13.037 6.34711C12.6345 6.29299 12.0948 6.29166 11.2915 6.29166C10.9463 6.29166 10.6665 6.01184 10.6665 5.66666C10.6665 5.32148 10.9463 5.04166 11.2915 5.04166H11.3348C12.0836 5.04163 12.7079 5.04161 13.2036 5.10825C13.7268 5.17859 14.1991 5.33331 14.5786 5.71287C14.9582 6.09243 15.1129 6.56476 15.1833 7.08792C15.2499 7.58357 15.2498 8.20791 15.2498 8.95657V9.04332C15.2498 9.79207 15.2499 10.4164 15.1833 10.9121C15.1129 11.4352 14.9582 11.9076 14.5786 12.2871C14.1991 12.6667 13.7268 12.8214 13.2036 12.8917C12.7079 12.9584 12.0836 12.9583 11.3348 12.9583H11.2482C10.4994 12.9583 9.87509 12.9584 9.37942 12.8917C8.85625 12.8214 8.38392 12.6667 8.00442 12.2871C7.62484 11.9076 7.47009 11.4352 7.39975 10.9121C7.33313 10.4164 7.33315 9.79207 7.33317 9.04332V8.99999C7.33317 8.65482 7.613 8.37499 7.95817 8.37499C8.30334 8.37499 8.58317 8.65482 8.58317 8.99999C8.58317 9.80332 8.5845 10.343 8.63859 10.7455C8.69034 11.1301 8.77967 11.2947 8.88825 11.4032C8.99684 11.5118 9.16142 11.6012 9.546 11.6529C9.9485 11.707 10.4882 11.7083 11.2915 11.7083C12.0948 11.7083 12.6345 11.707 13.037 11.6529C13.4216 11.6012 13.5862 11.5118 13.6948 11.4032C13.8033 11.2947 13.8927 11.1301 13.9444 10.7455C13.9985 10.343 13.9998 9.80332 13.9998 8.99999C13.9998 8.19666 13.9985 7.65699 13.9444 7.25449C13.8927 6.86993 13.8033 6.70536 13.6948 6.59676C13.5862 6.48816 13.4216 6.39881 13.037 6.34711Z" fill="currentColor"/>
</svg>
