<svg width="25" height="25" viewBox="0 0 25 25" fill="none" xmlns="http://www.w3.org/2000/svg">
<path d="M2.41935 10.0806C2.41935 9.41258 1.87776 8.87097 1.20968 8.87097C0.541597 8.87097 0 9.41258 0 10.0806H2.41935ZM10.8871 25C11.5552 25 12.0968 24.4584 12.0968 23.7903C12.0968 23.1223 11.5552 22.5806 10.8871 22.5806V25ZM0 10.0806C0 10.7487 0.541597 11.2903 1.20968 11.2903C1.87776 11.2903 2.41935 10.7487 2.41935 10.0806H0ZM10.8871 2.41935C11.5552 2.41935 12.0968 1.87776 12.0968 1.20968C12.0968 0.541597 11.5552 0 10.8871 0V2.41935ZM1.20968 8.87097C0.541597 8.87097 0 9.41258 0 10.0806C0 10.7487 0.541597 11.2903 1.20968 11.2903V8.87097ZM10.8871 11.2903C11.5552 11.2903 12.0968 10.7487 12.0968 10.0806C12.0968 9.41258 11.5552 8.87097 10.8871 8.87097V11.2903ZM9.67742 10.0806C9.67742 10.7487 10.219 11.2903 10.8871 11.2903C11.5552 11.2903 12.0968 10.7487 12.0968 10.0806H9.67742ZM12.0968 1.20968C12.0968 0.541597 11.5552 0 10.8871 0C10.219 0 9.67742 0.541597 9.67742 1.20968H12.0968ZM12.0968 10.0806C12.0968 9.41258 11.5552 8.87097 10.8871 8.87097C10.219 8.87097 9.67742 9.41258 9.67742 10.0806H12.0968ZM9.67742 15.7258C9.67742 16.3939 10.219 16.9355 10.8871 16.9355C11.5552 16.9355 12.0968 16.3939 12.0968 15.7258H9.67742ZM10.8871 22.5806C10.219 22.5806 9.67742 23.1223 9.67742 23.7903C9.67742 24.4584 10.219 25 10.8871 25V22.5806ZM25 15.7258C25 15.0577 24.4584 14.5161 23.7903 14.5161C23.1223 14.5161 22.5806 15.0577 22.5806 15.7258H25ZM9.67742 23.7903C9.67742 24.4584 10.219 25 10.8871 25C11.5552 25 12.0968 24.4584 12.0968 23.7903H9.67742ZM12.0968 15.7258C12.0968 15.0577 11.5552 14.5161 10.8871 14.5161C10.219 14.5161 9.67742 15.0577 9.67742 15.7258H12.0968ZM10.8871 0C10.219 0 9.67742 0.541597 9.67742 1.20968C9.67742 1.87776 10.219 2.41935 10.8871 2.41935V0ZM22.5806 15.7258C22.5806 16.3939 23.1223 16.9355 23.7903 16.9355C24.4584 16.9355 25 16.3939 25 15.7258H22.5806ZM23.7903 16.9355C24.4584 16.9355 25 16.3939 25 15.7258C25 15.0577 24.4584 14.5161 23.7903 14.5161V16.9355ZM10.8871 14.5161C10.219 14.5161 9.67742 15.0577 9.67742 15.7258C9.67742 16.3939 10.219 16.9355 10.8871 16.9355V14.5161ZM0 10.0806V17.3387H2.41935V10.0806H0ZM0 17.3387C0 21.57 3.43008 25 7.66129 25V22.5806C4.76624 22.5806 2.41935 20.2337 2.41935 17.3387H0ZM7.66129 25H10.8871V22.5806H7.66129V25ZM2.41935 10.0806V7.66129H0V10.0806H2.41935ZM2.41935 7.66129C2.41935 4.76624 4.76624 2.41935 7.66129 2.41935V0C3.43008 0 0 3.43008 0 7.66129H2.41935ZM7.66129 2.41935H10.8871V0H7.66129V2.41935ZM1.20968 11.2903H10.8871V8.87097H1.20968V11.2903ZM12.0968 10.0806V1.20968H9.67742V10.0806H12.0968ZM9.67742 10.0806V15.7258H12.0968V10.0806H9.67742ZM10.8871 25H17.3387V22.5806H10.8871V25ZM17.3387 25C21.57 25 25 21.57 25 17.3387H22.5806C22.5806 20.2337 20.2337 22.5806 17.3387 22.5806V25ZM25 17.3387V15.7258H22.5806V17.3387H25ZM12.0968 23.7903V15.7258H9.67742V23.7903H12.0968ZM10.8871 2.41935H17.3387V0H10.8871V2.41935ZM17.3387 2.41935C20.2337 2.41935 22.5806 4.76624 22.5806 7.66129H25C25 3.43008 21.57 0 17.3387 0V2.41935ZM22.5806 7.66129V15.7258H25V7.66129H22.5806ZM23.7903 14.5161H10.8871V16.9355H23.7903V14.5161Z" fill="currentColor"/>
</svg>
