<svg width="21" height="25" viewBox="0 0 21 25" fill="none" xmlns="http://www.w3.org/2000/svg">
<path fill-rule="evenodd" clip-rule="evenodd" d="M3.73668 0C1.67297 0 0 1.67297 0 3.73668V21.2633C0 23.3271 1.67298 25 3.73668 25H16.8817C18.9454 25 20.6183 23.3271 20.6183 21.2633V19.6202C20.6183 18.7664 19.9262 18.0743 19.0725 18.0743C18.2187 18.0743 17.5266 18.7664 17.5266 19.6202V21.2633C17.5266 21.6196 17.2379 21.9083 16.8817 21.9083H3.73668C3.38045 21.9083 3.0917 21.6196 3.0917 21.2633V3.73668C3.0917 3.38047 3.38047 3.0917 3.73668 3.0917H9.85873V14.6908C9.85873 15.2826 10.1966 15.8225 10.7288 16.0812C11.2611 16.3399 11.8943 16.272 12.3596 15.9064L15.4953 13.4426L18.012 15.8156C18.4609 16.2388 19.1185 16.3546 19.685 16.1102C20.2515 15.8657 20.6183 15.3078 20.6183 14.6908V12.505C20.6183 12.5033 20.6183 12.5017 20.6183 12.5V3.73668C20.6183 1.67298 18.9454 0 16.8817 0H11.4046H3.73668ZM12.9504 3.0917V11.5103L14.632 10.1891C15.2337 9.71628 16.0908 9.75489 16.6476 10.2798L17.5266 11.1087V4.83209C17.5266 4.83043 17.5266 4.82877 17.5266 4.82711V3.73668C17.5266 3.38045 17.2379 3.0917 16.8817 3.0917H12.9504Z" fill="currentColor"/>
</svg>
